<svg width="591" height="578" viewBox="0 0 591 578" fill="none" xmlns="http://www.w3.org/2000/svg">
<g opacity="0.25">
<path fill-rule="evenodd" clip-rule="evenodd" d="M374.5 0C167.753 0 0 167.753 0 374.5C0 581.247 167.753 749 374.5 749C580.841 749 749 581.247 749 374.5C749 167.753 580.841 0 374.5 0ZM621.865 172.627C666.545 227.056 693.353 296.513 694.165 371.657C683.605 369.626 577.997 348.098 471.578 361.502C469.14 356.222 467.11 350.535 464.672 344.849C458.174 329.414 450.862 313.573 443.551 298.544C561.344 250.614 614.96 181.563 621.865 172.627ZM374.5 55.2408C455.736 55.2408 530.068 85.7045 586.527 135.665C580.841 143.789 532.505 208.371 418.774 251.021C366.376 154.755 308.292 75.9561 299.356 63.7706C323.321 58.0841 348.504 55.2408 374.5 55.2408ZM238.429 85.2983C246.959 96.6714 303.824 175.877 357.034 270.111C207.559 309.917 75.5499 309.105 61.3335 309.105C82.0488 209.996 149.069 127.541 238.429 85.2983ZM54.4284 374.906C54.4284 371.657 54.4284 368.407 54.4284 365.158C68.2386 365.564 223.4 367.595 383.03 319.665C392.372 337.537 400.902 355.816 409.025 374.094C404.964 375.312 400.496 376.531 396.434 377.749C231.524 430.959 143.788 576.373 136.477 588.558C85.7044 532.099 54.4284 456.955 54.4284 374.906ZM374.5 694.572C300.575 694.572 232.336 669.388 178.314 627.145C184.001 615.366 248.99 490.262 429.335 427.304C430.147 426.898 430.553 426.898 431.366 426.491C476.452 543.066 494.73 640.956 499.604 668.982C461.017 685.636 418.774 694.572 374.5 694.572ZM552.814 639.737C549.565 620.24 532.505 526.818 490.668 411.869C590.995 396.028 678.731 422.023 689.697 425.679C675.887 514.633 624.708 591.401 552.814 639.737Z" transform="translate(-158 -171)" fill="url(#paint0_radial)"/>
</g>
<defs>
<radialGradient id="paint0_radial" cx="0.5" cy="0.5" r="0.5" gradientUnits="userSpaceOnUse" gradientTransform="translate(288 -912) scale(1414.05) rotate(52.6439)">
<stop/>
<stop offset="1" stop-opacity="0"/>
</radialGradient>
</defs>
</svg>
